<svg xmlns="http://www.w3.org/2000/svg" xmlns:xlink="http://www.w3.org/1999/xlink" width="50" zoomAndPan="magnify" viewBox="0 0 37.5 37.499999" height="50" preserveAspectRatio="xMidYMid meet" version="1.0"><defs><clipPath id="e27a117f0f"><path d="M 0 0.046875 L 37.007812 0.046875 L 37.007812 37.007812 L 0 37.007812 Z M 0 0.046875 " clip-rule="nonzero"/></clipPath><clipPath id="124e1b3a12"><path d="M 11 0.046875 L 37 0.046875 L 37 26 L 11 26 Z M 11 0.046875 " clip-rule="nonzero"/></clipPath></defs><g clip-path="url(#e27a117f0f)"><path fill="#000000" d="M 35.6875 27.15625 L 9.898438 27.15625 L 9.898438 1.371094 C 9.898438 0.640625 9.304688 0.0507812 8.578125 0.0507812 L 1.320312 0.0507812 C 0.59375 0.0507812 0 0.640625 0 1.371094 L 0 35.734375 C 0 36.464844 0.59375 37.054688 1.320312 37.054688 L 35.6875 37.054688 C 36.414062 37.054688 37.007812 36.464844 37.007812 35.734375 L 37.007812 28.476562 C 37.007812 27.75 36.414062 27.15625 35.6875 27.15625 Z M 35.921875 35.734375 C 35.921875 35.863281 35.816406 35.96875 35.6875 35.96875 L 1.320312 35.96875 C 1.191406 35.96875 1.085938 35.863281 1.085938 35.734375 L 1.085938 1.371094 C 1.085938 1.242188 1.191406 1.136719 1.320312 1.136719 L 8.578125 1.136719 C 8.707031 1.136719 8.8125 1.242188 8.8125 1.371094 L 8.8125 4.183594 L 6.851562 4.183594 C 6.550781 4.183594 6.308594 4.425781 6.308594 4.726562 C 6.308594 5.027344 6.550781 5.269531 6.851562 5.269531 L 8.8125 5.269531 L 8.8125 8.792969 L 5.425781 8.792969 C 5.125 8.792969 4.882812 9.035156 4.882812 9.335938 C 4.882812 9.636719 5.125 9.878906 5.425781 9.878906 L 8.8125 9.878906 L 8.8125 13.402344 L 6.851562 13.402344 C 6.550781 13.402344 6.308594 13.644531 6.308594 13.945312 C 6.308594 14.246094 6.550781 14.488281 6.851562 14.488281 L 8.8125 14.488281 L 8.8125 18.011719 L 5.425781 18.011719 C 5.125 18.011719 4.882812 18.253906 4.882812 18.554688 C 4.882812 18.855469 5.125 19.097656 5.425781 19.097656 L 8.8125 19.097656 L 8.8125 22.621094 L 6.851562 22.621094 C 6.550781 22.621094 6.308594 22.863281 6.308594 23.164062 C 6.308594 23.464844 6.550781 23.707031 6.851562 23.707031 L 8.8125 23.707031 L 8.8125 27.230469 L 5.425781 27.230469 C 5.125 27.230469 4.882812 27.472656 4.882812 27.773438 C 4.882812 28.070312 5.125 28.316406 5.425781 28.316406 L 8.742188 28.316406 L 8.742188 31.628906 C 8.742188 31.929688 8.988281 32.171875 9.285156 32.171875 C 9.585938 32.171875 9.828125 31.929688 9.828125 31.628906 L 9.828125 28.242188 L 13.351562 28.242188 L 13.351562 30.207031 C 13.351562 30.507812 13.59375 30.75 13.894531 30.75 C 14.195312 30.75 14.4375 30.507812 14.4375 30.207031 L 14.4375 28.242188 L 17.960938 28.242188 L 17.960938 31.628906 C 17.960938 31.929688 18.203125 32.171875 18.503906 32.171875 C 18.804688 32.171875 19.046875 31.929688 19.046875 31.628906 L 19.046875 28.242188 L 22.570312 28.242188 L 22.570312 30.207031 C 22.570312 30.507812 22.8125 30.75 23.113281 30.75 C 23.414062 30.75 23.65625 30.507812 23.65625 30.207031 L 23.65625 28.242188 L 27.179688 28.242188 L 27.179688 31.628906 C 27.179688 31.929688 27.421875 32.171875 27.722656 32.171875 C 28.023438 32.171875 28.265625 31.929688 28.265625 31.628906 L 28.265625 28.242188 L 31.789062 28.242188 L 31.789062 30.207031 C 31.789062 30.507812 32.03125 30.75 32.332031 30.75 C 32.632812 30.75 32.875 30.507812 32.875 30.207031 L 32.875 28.242188 L 35.6875 28.242188 C 35.816406 28.242188 35.921875 28.351562 35.921875 28.476562 Z M 35.921875 35.734375 " fill-opacity="1" fill-rule="nonzero"/></g><g clip-path="url(#124e1b3a12)"><path fill="#000000" d="M 12.15625 25.515625 C 12.214844 25.515625 12.273438 25.507812 12.332031 25.488281 L 18.125 23.476562 C 18.203125 23.449219 18.273438 23.40625 18.332031 23.347656 C 22.035156 19.644531 32.617188 9.066406 36.320312 5.363281 C 36.582031 5.101562 36.722656 4.75 36.722656 4.371094 C 36.722656 3.980469 36.5625 3.597656 36.285156 3.316406 L 33.808594 0.839844 C 33.234375 0.273438 32.320312 0.257812 31.769531 0.808594 C 31.285156 1.292969 22.210938 10.367188 18.433594 14.144531 L 13.78125 18.792969 C 13.722656 18.851562 13.679688 18.921875 13.652344 19 L 11.644531 24.796875 C 11.574219 24.992188 11.625 25.210938 11.769531 25.359375 C 11.875 25.460938 12.011719 25.515625 12.15625 25.515625 Z M 17.949219 22.195312 L 16.824219 21.070312 L 32.265625 5.628906 L 33.390625 6.753906 C 28.917969 11.226562 21.308594 18.835938 17.949219 22.195312 Z M 32.535156 1.578125 C 32.664062 1.449219 32.894531 1.464844 33.042969 1.613281 L 35.519531 4.085938 C 35.59375 4.164062 35.640625 4.269531 35.640625 4.371094 C 35.640625 4.421875 35.628906 4.519531 35.554688 4.59375 C 35.160156 4.984375 34.691406 5.457031 34.160156 5.988281 L 31.144531 2.96875 C 31.671875 2.441406 32.140625 1.972656 32.535156 1.578125 Z M 19.199219 14.914062 C 22.824219 11.289062 27.328125 6.785156 30.375 3.738281 L 31.5 4.863281 L 16.058594 20.304688 L 14.933594 19.179688 Z M 14.394531 20.175781 L 16.949219 22.734375 L 13.035156 24.09375 Z M 14.394531 20.175781 " fill-opacity="1" fill-rule="nonzero"/></g></svg>