<svg xmlns="http://www.w3.org/2000/svg" xmlns:xlink="http://www.w3.org/1999/xlink" width="50" zoomAndPan="magnify" viewBox="0 0 37.5 37.499999" height="50" preserveAspectRatio="xMidYMid meet" version="1.0"><defs><clipPath id="4ba4c7d76b"><path d="M 0.296875 16 L 36.707031 16 L 36.707031 35.164062 L 0.296875 35.164062 Z M 0.296875 16 " clip-rule="nonzero"/></clipPath><clipPath id="54f0073211"><path d="M 35.613281 27.234375 L 21.792969 34.292969 C 19.722656 35.351562 17.273438 35.351562 15.203125 34.292969 L 1.386719 27.234375 C 0.753906 26.910156 0.355469 26.261719 0.355469 25.550781 C 0.355469 24.839844 0.753906 24.191406 1.386719 23.867188 L 15.203125 16.808594 C 17.273438 15.75 19.722656 15.75 21.792969 16.808594 L 35.613281 23.867188 C 36.246094 24.191406 36.644531 24.839844 36.644531 25.550781 C 36.644531 26.261719 36.246094 26.910156 35.613281 27.234375 Z M 35.613281 27.234375 " clip-rule="nonzero"/></clipPath><clipPath id="16840426f0"><path d="M 0.0117188 16 L 36.996094 16 L 36.996094 35.53125 L 0.0117188 35.53125 Z M 0.0117188 16 " clip-rule="nonzero"/></clipPath><clipPath id="b9b37ab6cc"><path d="M 35.613281 27.234375 L 21.796875 34.289062 C 19.726562 35.347656 17.277344 35.347656 15.207031 34.289062 L 1.390625 27.234375 C 0.757812 26.910156 0.363281 26.261719 0.363281 25.550781 C 0.363281 24.839844 0.757812 24.191406 1.390625 23.867188 L 15.207031 16.808594 C 17.277344 15.75 19.726562 15.75 21.796875 16.808594 L 35.613281 23.867188 C 36.246094 24.191406 36.644531 24.839844 36.644531 25.550781 C 36.644531 26.261719 36.246094 26.910156 35.613281 27.234375 Z M 35.613281 27.234375 " clip-rule="nonzero"/></clipPath><clipPath id="146fb475fe"><path d="M 0.296875 8.886719 L 36.707031 8.886719 L 36.707031 28.113281 L 0.296875 28.113281 Z M 0.296875 8.886719 " clip-rule="nonzero"/></clipPath><clipPath id="09cc00b1d9"><path d="M 35.613281 20.183594 L 21.792969 27.242188 C 19.722656 28.300781 17.273438 28.300781 15.203125 27.242188 L 1.386719 20.183594 C 0.753906 19.859375 0.355469 19.210938 0.355469 18.5 C 0.355469 17.789062 0.753906 17.140625 1.386719 16.816406 L 15.203125 9.757812 C 17.273438 8.699219 19.722656 8.699219 21.792969 9.757812 L 35.613281 16.816406 C 36.246094 17.140625 36.644531 17.789062 36.644531 18.5 C 36.644531 19.210938 36.246094 19.859375 35.613281 20.183594 Z M 35.613281 20.183594 " clip-rule="nonzero"/></clipPath><clipPath id="b8a18abeab"><path d="M 0.0117188 8.714844 L 36.996094 8.714844 L 36.996094 28.480469 L 0.0117188 28.480469 Z M 0.0117188 8.714844 " clip-rule="nonzero"/></clipPath><clipPath id="5929fc7546"><path d="M 35.613281 20.183594 L 21.796875 27.242188 C 19.726562 28.296875 17.277344 28.296875 15.207031 27.242188 L 1.390625 20.183594 C 0.757812 19.859375 0.363281 19.210938 0.363281 18.5 C 0.363281 17.789062 0.757812 17.140625 1.390625 16.816406 L 15.207031 9.757812 C 17.277344 8.703125 19.726562 8.703125 21.796875 9.757812 L 35.613281 16.816406 C 36.246094 17.140625 36.644531 17.789062 36.644531 18.5 C 36.644531 19.210938 36.246094 19.859375 35.613281 20.183594 Z M 35.613281 20.183594 " clip-rule="nonzero"/></clipPath><clipPath id="dfb2089625"><path d="M 0.296875 1.839844 L 36.707031 1.839844 L 36.707031 21 L 0.296875 21 Z M 0.296875 1.839844 " clip-rule="nonzero"/></clipPath><clipPath id="c16b09c55d"><path d="M 35.613281 13.132812 L 21.792969 20.191406 C 19.722656 21.25 17.273438 21.25 15.203125 20.191406 L 1.386719 13.132812 C 0.753906 12.808594 0.355469 12.160156 0.355469 11.449219 C 0.355469 10.738281 0.753906 10.089844 1.386719 9.765625 L 15.203125 2.707031 C 17.273438 1.648438 19.722656 1.648438 21.792969 2.707031 L 35.613281 9.765625 C 36.246094 10.089844 36.644531 10.738281 36.644531 11.449219 C 36.644531 12.160156 36.246094 12.808594 35.613281 13.132812 Z M 35.613281 13.132812 " clip-rule="nonzero"/></clipPath><clipPath id="23fadcdc95"><path d="M 0.0117188 1.664062 L 36.996094 1.664062 L 36.996094 21 L 0.0117188 21 Z M 0.0117188 1.664062 " clip-rule="nonzero"/></clipPath><clipPath id="de70f60f72"><path d="M 35.613281 13.132812 L 21.796875 20.191406 C 19.726562 21.246094 17.277344 21.246094 15.207031 20.191406 L 1.390625 13.132812 C 0.757812 12.808594 0.363281 12.160156 0.363281 11.449219 C 0.363281 10.738281 0.757812 10.089844 1.390625 9.765625 L 15.207031 2.707031 C 17.277344 1.652344 19.726562 1.652344 21.796875 2.707031 L 35.613281 9.765625 C 36.246094 10.089844 36.644531 10.738281 36.644531 11.449219 C 36.644531 12.160156 36.246094 12.808594 35.613281 13.132812 Z M 35.613281 13.132812 " clip-rule="nonzero"/></clipPath></defs><g clip-path="url(#4ba4c7d76b)"><g clip-path="url(#54f0073211)"><path fill="#ffffff" d="M 38.910156 15.125 L 38.910156 35.976562 L -1.902344 35.976562 L -1.902344 15.125 Z M 38.910156 15.125 " fill-opacity="1" fill-rule="nonzero"/></g></g><g clip-path="url(#16840426f0)"><g clip-path="url(#b9b37ab6cc)"><path stroke-linecap="butt" transform="matrix(0, 0.740132, -0.740132, 0, 38.908216, 15.125722)" fill="none" stroke-linejoin="miter" d="M 16.360137 4.451823 L 25.891805 23.119325 C 27.322083 25.916547 27.322083 29.225714 25.891805 32.022936 L 16.360137 50.690438 C 15.922082 51.545438 15.045971 52.078493 14.085415 52.078493 C 13.124859 52.078493 12.248748 51.545438 11.810693 50.690438 L 2.273747 32.022936 C 0.84347 29.225714 0.84347 25.916547 2.273747 23.119325 L 11.810693 4.451823 C 12.248748 3.596823 13.124859 3.05849 14.085415 3.05849 C 15.045971 3.05849 15.922082 3.596823 16.360137 4.451823 Z M 16.360137 4.451823 " stroke="#000000" stroke-width="3.5" stroke-opacity="1" stroke-miterlimit="4"/></g></g><g clip-path="url(#146fb475fe)"><g clip-path="url(#09cc00b1d9)"><path fill="#d9d9d9" d="M 38.910156 8.074219 L 38.910156 28.925781 L -1.902344 28.925781 L -1.902344 8.074219 Z M 38.910156 8.074219 " fill-opacity="1" fill-rule="nonzero"/></g></g><g clip-path="url(#b8a18abeab)"><g clip-path="url(#5929fc7546)"><path stroke-linecap="butt" transform="matrix(0, 0.740132, -0.740132, 0, 38.908216, 8.075243)" fill="none" stroke-linejoin="miter" d="M 16.359728 4.451823 L 25.896673 23.119325 C 27.321673 25.916547 27.321673 29.225714 25.896673 32.022936 L 16.359728 50.690438 C 15.921672 51.545438 15.045561 52.078493 14.085006 52.078493 C 13.12445 52.078493 12.248339 51.545438 11.810283 50.690438 L 2.273338 32.022936 C 0.848338 29.225714 0.848338 25.916547 2.273338 23.119325 L 11.810283 4.451823 C 12.248339 3.596823 13.12445 3.05849 14.085006 3.05849 C 15.045561 3.05849 15.921672 3.596823 16.359728 4.451823 Z M 16.359728 4.451823 " stroke="#000000" stroke-width="3.5" stroke-opacity="1" stroke-miterlimit="4"/></g></g><g clip-path="url(#dfb2089625)"><g clip-path="url(#c16b09c55d)"><path fill="#ffffff" d="M 38.910156 1.023438 L 38.910156 21.875 L -1.902344 21.875 L -1.902344 1.023438 Z M 38.910156 1.023438 " fill-opacity="1" fill-rule="nonzero"/></g></g><g clip-path="url(#23fadcdc95)"><g clip-path="url(#de70f60f72)"><path stroke-linecap="butt" transform="matrix(0, 0.740132, -0.740132, 0, 38.908216, 1.024765)" fill="none" stroke-linejoin="miter" d="M 16.359318 4.451823 L 25.896263 23.119325 C 27.321263 25.916547 27.321263 29.225714 25.896263 32.022936 L 16.359318 50.690438 C 15.921262 51.545438 15.045151 52.078493 14.084596 52.078493 C 13.12404 52.078493 12.247929 51.545438 11.809873 50.690438 L 2.272928 32.022936 C 0.847928 29.225714 0.847928 25.916547 2.272928 23.119325 L 11.809873 4.451823 C 12.247929 3.596823 13.12404 3.05849 14.084596 3.05849 C 15.045151 3.05849 15.921262 3.596823 16.359318 4.451823 Z M 16.359318 4.451823 " stroke="#000000" stroke-width="3.5" stroke-opacity="1" stroke-miterlimit="4"/></g></g></svg>